<svg width="20" height="20" viewBox="0 0 20 20" fill="none" xmlns="http://www.w3.org/2000/svg">
<path fill-rule="evenodd" clip-rule="evenodd" d="M16.5 0C18.433 0 20 1.56702 20 3.50001C20 5.433 18.433 7 16.5 7C14.567 7 13 5.433 13 3.50001C13 1.56702 14.567 5.7741e-08 16.5 0ZM16.5 1.40002C15.3402 1.40002 14.4 2.34022 14.4 3.50001C14.4 4.6598 15.3402 5.60001 16.5 5.60001C17.6598 5.60001 18.6 4.6598 18.6 3.50001C18.6 2.34022 17.6598 1.40002 16.5 1.40002Z" fill="#FF0004"/>
<path d="M16.5 1.40002C15.3402 1.40002 14.4 2.34022 14.4 3.50001C14.4 4.6598 15.3402 5.60001 16.5 5.60001C17.6598 5.60001 18.6 4.6598 18.6 3.50001C18.6 2.34022 17.6598 1.40002 16.5 1.40002Z" fill="#FF0004"/>
<path d="M9.99999 0C10.684 0 11.3527 0.0688126 11.9993 0.200063C12.3769 0.276722 12.6208 0.644971 12.5442 1.02258C12.4675 1.40018 12.0993 1.64416 11.7217 1.5675C11.166 1.4547 10.5902 1.39537 9.99999 1.39537C5.24778 1.39538 1.39535 5.2478 1.39535 10C1.39535 11.3777 1.71863 12.6779 2.29284 13.8308C2.5233 14.2935 2.61204 14.8468 2.46663 15.3902L1.91258 17.461C1.81087 17.8411 2.15867 18.1892 2.53907 18.0874L4.60977 17.5334C5.14475 17.3902 5.68921 17.474 6.14735 17.6964L6.1691 17.7071L6.16924 17.7071C7.32206 18.2814 8.62225 18.6047 9.99999 18.6047C14.7522 18.6047 18.6046 14.7522 18.6047 10C18.6047 9.4098 18.5453 8.83403 18.4325 8.27827C18.3559 7.90065 18.5999 7.53242 18.9776 7.45581C19.3552 7.3792 19.7234 7.62322 19.8 8.00084C19.9312 8.6473 20 9.316 20 10C20 15.5228 15.5228 20 9.99999 20C8.40155 20 6.88884 19.6245 5.54708 18.9561C5.35307 18.8596 5.15516 18.8367 4.98668 18.8772L4.97046 18.8813L2.89971 19.4353L2.89968 19.4354C1.48227 19.8145 0.185355 18.5179 0.564653 17.1003L1.1187 15.0295C1.16471 14.8576 1.14356 14.6531 1.04384 14.4529C0.37556 13.1111 2.13453e-06 11.5984 0 10C4.72035e-06 4.47717 4.47715 4.71789e-06 9.99999 0Z" fill="white"/>
</svg>
