<svg width="50" height="50" viewBox="0 0 50 50" fill="none" xmlns="http://www.w3.org/2000/svg">
<path fill-rule="evenodd" clip-rule="evenodd" d="M24.1357 14.0148C17.8802 14.3428 13.7508 19.2657 14.0117 25.4735C14.0739 26.9563 14.4263 28.3262 14.7756 29.6839C15.0663 30.8142 15.3549 31.9361 15.4721 33.1076C15.4861 33.2492 15.4885 33.3978 15.4909 33.5469C15.4998 34.1012 15.5089 34.662 16.1139 34.892C17.0585 35.2501 18.5069 34.6483 19.2986 34.0976C19.5685 33.9141 19.8264 33.7004 20.0243 33.4356L20.0803 33.4729C20.8785 34.0041 21.6419 34.5122 22.5943 34.7416C26.8856 35.7737 31.5877 33.4116 33.6779 29.6171C37.6063 22.4885 32.2954 13.5875 24.1357 14.0148ZM19.7514 29.2319C19.9553 29.7134 20.1233 30.0173 20.666 29.7254C20.9087 29.591 21.1312 29.3923 21.3498 29.1971C21.469 29.0907 21.5871 28.9853 21.7066 28.8919V28.8949C26.0099 31.8318 31.5667 27.1045 29.3956 22.317C28.415 20.1654 26.2438 18.9738 23.9048 19.1815C21.5927 19.3861 19.9103 21.3059 19.4065 23.4875C19.0317 25.0914 19.1097 27.7003 19.7514 29.2319Z" fill="white"/>
</svg>
