<svg width="12" height="12" viewBox="0 0 12 12" fill="none" xmlns="http://www.w3.org/2000/svg">
<path d="M1.07248 1.03475L1.92856 0.178732C2.16687 -0.0595772 2.55329 -0.0595772 2.7916 0.178732L4.755 2.1422C4.99337 2.38051 4.99337 2.76693 4.755 3.00524L3.42035 4.33995C3.20914 4.5511 3.15678 4.87375 3.29037 5.14092C4.06254 6.68526 5.31474 7.93746 6.85908 8.70963C7.12625 8.84322 7.4489 8.79086 7.66005 8.57965L8.99476 7.245C9.23307 7.00663 9.61949 7.00663 9.8578 7.245L11.8213 9.2084C12.0596 9.44671 12.0596 9.83313 11.8213 10.0714L10.9652 10.9275C9.67673 12.216 7.63686 12.361 6.17912 11.2676L4.67079 10.1364C3.60679 9.33839 2.66161 8.39321 1.86357 7.32921L0.732376 5.82088C-0.360975 4.36314 -0.215976 2.32327 1.07248 1.03475Z" fill="white"/>
</svg>
