<svg width="50" height="50" viewBox="0 0 50 50" fill="none" xmlns="http://www.w3.org/2000/svg">
<path d="M34.9992 16.7291C35.0226 15.2512 34.5481 14.7957 33.5945 15.0801C33.4311 15.1292 33.2693 15.1954 33.1138 15.2729C27.3293 18.1561 21.5449 21.0392 15.7628 23.93C15.2601 24.1813 14.7309 24.3826 14.3018 24.8116C13.8422 25.2718 13.9149 25.9428 14.4699 26.1781C15.6479 26.6789 16.8282 27.1779 18.0375 27.5578C19.0607 27.8791 19.9995 27.7487 20.9219 26.9681C23.2974 24.9562 25.7237 23.0322 28.1321 21.078C28.5425 20.7453 28.956 20.4136 29.4399 20.2483C29.5798 20.2001 29.7252 20.1566 29.8393 20.3135C29.9526 20.4694 29.901 20.6433 29.8416 20.8011C29.7455 21.0591 29.6384 21.3171 29.4711 21.5174C28.7606 22.3698 28.0508 23.224 27.3277 24.0613C26.0591 25.5279 24.774 26.9728 23.51 28.4451C23.0754 28.9507 23.0981 29.5895 23.5225 30.113C23.6585 30.2803 23.8086 30.4334 23.9626 30.577C25.6972 32.1892 27.5583 33.5793 29.3718 35.0506C29.9253 35.4995 30.5272 35.8378 31.1947 35.9729C31.774 36.0901 32.2117 35.8255 32.4939 35.2037C32.694 34.7633 32.7362 34.2757 32.7987 33.7976C33.3787 29.392 33.9548 24.9855 34.5263 20.5781C34.7053 19.1984 34.8663 17.8149 34.9992 16.7291Z" fill="white"/>
</svg>
