<svg width="50" height="50" viewBox="0 0 50 50" fill="none" xmlns="http://www.w3.org/2000/svg">
<path d="M27.4535 21.5454H27.448C27.448 20.6461 27.4553 19.7474 27.4456 18.8481C27.4389 18.2582 27.1788 18.0151 26.5662 18.0134C25.2429 18.0093 23.9195 18.0134 22.5968 18.011C22.2747 18.0104 21.9842 18.0809 21.8278 18.3791C21.6755 18.6691 21.8223 18.918 22.0176 19.1258C22.6635 19.8126 22.8576 20.6391 22.8545 21.5355C22.8503 22.6883 22.8545 23.8418 22.8521 24.9947C22.8521 25.1409 22.8473 25.2882 22.8248 25.4326C22.7241 26.0842 22.3694 26.2257 21.8041 25.8435C21.738 25.7989 21.6798 25.7437 21.6191 25.6921C21.1679 25.3064 20.8259 24.8333 20.4874 24.359C19.2793 22.6643 18.4612 20.7847 17.7279 18.8657C17.4847 18.23 17.19 18.0169 16.4859 18.0146C15.6374 18.0116 14.7889 18.0163 13.9405 18.0134C13.7342 18.0128 13.5377 18.048 13.3522 18.1308C13.1181 18.2353 12.9919 18.4202 13.0004 18.6656C13.0083 18.8886 13.0313 19.1158 13.0835 19.333C13.3479 20.4413 13.7682 21.5008 14.268 22.5246C15.0321 24.0895 15.9443 25.5753 16.9565 27.0046C18.3569 28.9823 20.0423 30.6417 22.376 31.5763C23.7515 32.1269 25.1713 32.411 26.6639 32.1269C27.2558 32.0142 27.4493 31.7852 27.4517 31.1982C27.4553 30.3676 27.4493 29.537 27.4541 28.7064C27.4577 28.1399 27.7331 27.9086 28.3153 27.9691C28.4882 27.9867 28.6477 28.0454 28.806 28.1123C29.236 28.2937 29.6114 28.5579 29.9668 28.8461C30.9352 29.6307 31.7773 30.5376 32.6189 31.4438L32.665 31.4935C33.1102 31.9731 33.6239 32.2748 34.3274 32.2484C35.1037 32.219 35.8824 32.2408 36.6605 32.2425C36.8231 32.2425 36.982 32.2302 37.1409 32.192C37.6133 32.0787 37.8371 31.7307 37.7188 31.2681C37.6279 30.9129 37.455 30.586 37.2452 30.2907C36.535 29.2899 35.7126 28.3782 34.8417 27.5053C34.3941 27.0563 33.9083 26.6442 33.5056 26.1499C33.2163 25.7948 33.2078 25.4684 33.4631 25.1086C34.4002 23.7884 35.3275 22.4612 36.1608 21.0764C36.5877 20.3673 37.0117 19.6541 37.2076 18.8434C37.3173 18.3897 37.1354 18.1284 36.6557 18.0621C35.8618 17.9523 35.0624 18.0234 34.2661 18.0146C32.9482 17.9999 32.7645 18.1408 32.2514 19.3066C31.6273 20.723 30.8092 22.0356 29.891 23.29C29.5216 23.7943 29.094 24.2504 28.6004 24.6425C28.3584 24.8344 28.08 25.0364 27.7483 24.8738C27.4408 24.7235 27.4559 24.4059 27.4541 24.123C27.4505 23.2654 27.4535 22.4054 27.4535 21.5454Z" fill="white"/>
</svg>
