<svg width="53" height="83" viewBox="0 0 53 83" fill="none" xmlns="http://www.w3.org/2000/svg">
<path d="M11.4349 64.0072L14.9672 55.9542L23.549 64.3393L20.736 69.972C20.468 70.5087 20.1073 70.9962 19.6696 71.4131L9.05048 81.5312C6.9729 83.5107 3.64055 83.4831 1.58009 81.4865C-0.517925 79.4535 -0.531383 76.1247 1.56796 74.0928L10.2896 65.6518C10.7763 65.1808 11.1651 64.6223 11.4349 64.0072ZM15.6014 34.6501L20.0026 32.9422L16.9944 46.3564C16.8158 47.153 17.0305 47.9855 17.5741 48.6042L17.6206 48.6572L26.4786 58.4447L26.4508 58.5287L26.488 58.454L31.9405 65.6368C32.3486 66.1742 32.6465 66.7838 32.8178 67.4317L35.8896 79.045C36.629 81.8403 39.579 83.5052 42.4334 82.7579C45.2362 82.0241 46.9388 79.2249 46.2346 76.4743L42.6918 62.6339C42.5072 61.9124 42.1662 61.2382 41.6918 60.6567L32.6565 49.5782L35.4576 38.9042L37.0711 43.0843C37.4239 43.9982 38.033 44.7964 38.8289 45.3874L44.4634 49.5715C46.7939 51.3021 50.1193 50.8646 51.9008 48.5953C53.6924 46.3132 53.2473 43.041 50.9055 41.2983L46.7339 38.1938C45.9824 37.6345 45.3969 36.8897 45.0378 36.0359L41.4355 27.4724C40.9692 26.3642 40.1219 25.5184 39.1005 25.0233L39.1062 25.0014C39.1062 25.0014 34.8367 22.1707 31.7124 21.3486C28.4636 20.4938 23.2986 21.0334 22.7119 21.0989C22.0572 21.0966 21.3915 21.2132 20.7456 21.4622L8.63875 26.1316C8.35297 26.2418 8.10424 26.4272 7.91981 26.6672L2.4145 33.8341C0.654448 36.1255 1.12931 39.3797 3.47074 41.1043C5.81549 42.8315 9.15383 42.3778 10.9214 40.0867L14.4597 35.5006C14.7533 35.1202 15.1483 34.8261 15.6014 34.6501ZM33.1247 18.1828C38.2635 18.1828 42.4292 14.1125 42.4292 9.0914C42.4292 4.07035 38.2635 0 33.1247 0C27.9859 0 23.8201 4.07035 23.8201 9.0914C23.8201 14.1125 27.9859 18.1828 33.1247 18.1828Z" fill="#2DCD18"/>
</svg>
