<svg width="108" height="99" viewBox="0 0 108 99" fill="none" xmlns="http://www.w3.org/2000/svg">
<path d="M34.0378 28.2857L34.4306 28.6801V28.6635V28.2857H34.0378Z" fill="#FF3232"/>
<path d="M9.69459 0.366848C10.0505 0.127838 10.4697 0.00011238 10.8987 0C11.187 1.67577e-05 11.4722 0.0576512 11.7378 0.169498C12.0033 0.281345 12.2436 0.445136 12.4446 0.651194L30.3911 18.551L30.9422 19.1007L36.0548 24.2L40.1511 28.2857L54.4884 42.5857L75.2945 63.3378L86.8323 74.8456L89.6886 77.6945L107.337 95.2969C107.544 95.4951 107.709 95.7325 107.823 95.9952C107.937 96.2579 107.997 96.5407 108 96.8268C108.003 97.113 107.948 97.3969 107.84 97.6619C107.732 97.9268 107.571 98.1675 107.368 98.3699C107.165 98.5723 106.924 98.7322 106.658 98.8404C106.393 98.9486 106.108 99.0028 105.821 98.9999C105.534 98.997 105.251 98.937 104.987 98.8234C104.724 98.7099 104.486 98.5451 104.287 98.3386L98.3767 92.4434L91.9388 86.0222L85.8002 79.8996L44.2723 38.4796L38.4813 32.7036L36.6248 30.8519L34.4306 28.6635L30.9422 25.1841L24.2918 18.551L18.5831 12.8571L9.39497 3.6929C9.08752 3.39445 8.8763 3.01132 8.7883 2.59251C8.7003 2.17369 8.73953 1.73822 8.90097 1.34175C9.06241 0.945292 9.33872 0.605858 9.69459 0.366848Z" fill="#FF3232"/>
<path fill-rule="evenodd" clip-rule="evenodd" d="M8.42965 29.7101L8.36636 29.8298C8.38006 29.8023 8.39388 29.7749 8.40781 29.7476L1.49526 41.5962C0.517496 43.2033 0 45.0507 0 46.9348V65.6876C0 68.7009 2.46354 71.1857 5.45099 71.1857H8.28724C9.26005 76.9633 14.258 81.4 20.2533 81.4C26.2486 81.4 31.2466 76.9633 32.2194 71.1857H69.0472C69.9323 76.4423 74.1493 80.5889 79.4179 81.294C79.9401 81.3639 80.4726 81.4 81.0133 81.4C81.5162 81.4 82.0122 81.3688 82.4994 81.3081C82.6332 81.2915 82.7665 81.2726 82.899 81.2515L78.6063 76.9522C78.3694 76.8787 78.1372 76.7947 77.9103 76.7005C75.9329 75.8805 74.3563 74.2969 73.5345 72.3071C73.4427 72.0848 73.3603 71.8574 73.2878 71.6255L44.2932 42.5857H43.9326H41.0252H38.4813V40.0209V36.7647V32.7036L36.6248 30.8519L34.4306 28.6635V28.6801V33.0454V35.937V42.5857H5.61713L11.9542 31.7251L11.9858 31.6612C13.0191 29.5875 15.1125 28.2857 17.4131 28.2857H26.8417H29.6901L25.6208 24.2H22.8765H17.4131C13.6196 24.2 10.1395 26.349 8.40781 29.7476L8.42965 29.7101ZM28.3546 69.1429C28.3546 64.6069 24.7503 60.9714 20.2533 60.9714C15.7563 60.9714 12.152 64.6069 12.152 69.1429C12.152 73.6788 15.7563 77.3143 20.2533 77.3143C24.7503 77.3143 28.3546 73.6788 28.3546 69.1429Z" fill="#FF3232"/>
<path d="M92.9793 71.1857H95.1906C98.5232 71.1857 101.267 68.4186 101.267 65.0571V55.6369C101.267 50.658 97.673 46.3822 92.8053 45.5622L75.9381 42.7254L61.8399 27.8309C59.9165 25.5284 57.0819 24.2 54.0985 24.2H36.0548L40.1511 28.2857H54.0985C55.8908 28.2857 57.5873 29.0813 58.7425 30.4642L58.7821 30.5121L70.2023 42.5857H54.4884L75.2945 63.3378C76.7563 61.8728 78.7741 60.9714 81.0133 60.9714C85.5103 60.9714 89.1146 64.6069 89.1146 69.1429C89.1146 71.3681 88.2471 73.3767 86.8323 74.8456L89.6886 77.6945C91.3781 75.9456 92.5574 73.6918 92.9793 71.1857Z" fill="#FF3232"/>
</svg>
