<svg width="108" height="100" viewBox="0 0 108 100" fill="none" xmlns="http://www.w3.org/2000/svg">
<path d="M6.45891 0C6.02921 0.000113515 5.60931 0.129129 5.25289 0.370554C4.89647 0.611978 4.61972 0.954841 4.45803 1.35531C4.29634 1.75577 4.25705 2.19565 4.34519 2.61869C4.43332 3.04174 4.64488 3.42873 4.95281 3.7302L99.9928 99.332C100.192 99.5405 100.43 99.707 100.694 99.8217C100.958 99.9363 101.242 99.9969 101.529 99.9999C101.816 100.003 102.102 99.9481 102.368 99.8388C102.634 99.7295 102.875 99.568 103.079 99.3635C103.282 99.1591 103.442 98.916 103.551 98.6484C103.66 98.3807 103.714 98.094 103.711 97.8049C103.708 97.5158 103.648 97.2302 103.534 96.9649C103.42 96.6995 103.254 96.4597 103.047 96.2595L95.9723 89.1429C97.6025 87.3449 98.7449 85.0965 99.1659 82.5906H101.52C104.851 82.5906 108 79.4227 108 76.0723V55.2104C108 50.9517 104.934 46.4283 104.545 45.8742L95.6475 33.8646C93.9865 31.7744 90.5753 28.2672 86.4 28.2672H71.28V64.3046L66.96 59.959V19.3597C66.96 16.0028 64.0324 13.0578 60.6952 13.0578H20.3344L8.00719 0.657771C7.8059 0.449632 7.56518 0.284187 7.29925 0.17121C7.03332 0.0582335 6.74758 1.6927e-05 6.45891 0ZM6.04547 13.0578C1.79027 13.3968 0 16.8941 0 19.3385V76.0681C0 79.6618 2.90736 82.5864 6.48 82.5864H15.3014C15.6732 85.0387 16.6667 87.4044 18.3642 89.3253C20.5601 91.8103 23.94 93.4502 28.08 93.4502C34.4744 93.4502 39.8043 88.7317 40.8417 82.5864H66.96V72.1936L8.17172 13.0578H6.04547ZM82.08 32.6127H86.4C88.1042 32.6127 90.2994 34.0964 92.2261 36.5212L101.043 48.4162C101.693 49.3548 103.258 52.0393 103.608 54.3446H84.24C83.2723 54.3425 82.08 53.141 82.08 52.1676V32.6127ZM28.08 71.7225C32.8773 71.7225 36.72 75.5879 36.72 80.4136C36.72 85.2393 32.8773 89.1047 28.08 89.1047C25.02 89.1047 22.9999 88.0286 21.5958 86.4396C20.1917 84.8506 19.44 82.6467 19.44 80.4136C19.44 78.1805 20.1917 75.9766 21.5958 74.3876C22.9999 72.7986 25.02 71.7225 28.08 71.7225ZM86.4 71.7225C91.165 71.7225 95.04 75.6205 95.04 80.4136C95.04 82.5838 94.2252 84.5457 92.9095 86.062L80.7848 73.8656C82.2921 72.5422 84.2426 71.7225 86.4 71.7225ZM71.28 76.5391V82.5864H73.6341C74.6665 88.7418 79.9891 93.4502 86.4 93.4502C86.9292 93.4502 87.4406 93.3732 87.9525 93.3102L83.1136 88.4427C80.9882 87.5605 79.2909 85.8532 78.4139 83.7152L71.28 76.5391Z" fill="#FF3232"/>
</svg>
