<svg width="93" height="83" viewBox="0 0 93 83" fill="none" xmlns="http://www.w3.org/2000/svg">
<path d="M50.5613 64.0072L54.0935 55.9542L62.6753 64.3393L59.8623 69.972C59.5943 70.5087 59.2336 70.9962 58.796 71.4131L48.1768 81.5312C46.0992 83.5107 42.7669 83.4831 40.7064 81.4865C38.6084 79.4535 38.595 76.1247 40.6943 74.0928L49.416 65.6518C49.9026 65.1808 50.2914 64.6223 50.5613 64.0072ZM54.7277 34.6501L59.1289 32.9422L56.1208 46.3564C55.9421 47.153 56.1568 47.9855 56.7005 48.6042L56.747 48.6572L65.6049 58.4447L65.5772 58.5287L65.6144 58.454L71.0669 65.6368C71.4749 66.1742 71.7728 66.7838 71.9441 67.4317L75.016 79.045C75.7553 81.8403 78.7054 83.5052 81.5597 82.7579C84.3626 82.0241 86.0651 79.2249 85.361 76.4743L81.8181 62.6339C81.6335 61.9124 81.2926 61.2382 80.8182 60.6567L71.7828 49.5782L74.584 38.9042L76.1975 43.0843C76.5502 43.9982 77.1593 44.7964 77.9552 45.3874L83.5898 49.5715C85.9202 51.3021 89.2456 50.8646 91.0271 48.5953C92.8187 46.3132 92.3736 43.041 90.0319 41.2983L85.8603 38.1938C85.1088 37.6345 84.5232 36.8897 84.1642 36.0359L80.5618 27.4724C80.0956 26.3642 79.2482 25.5184 78.2269 25.0233L78.2325 25.0014C78.2325 25.0014 73.9631 22.1707 70.8387 21.3486C67.5899 20.4938 62.4249 21.0334 61.8382 21.0989C61.1836 21.0966 60.5178 21.2132 59.872 21.4622L47.7651 26.1316C47.4793 26.2418 47.2306 26.4272 47.0462 26.6672L41.5408 33.8341C39.7808 36.1255 40.2557 39.3797 42.5971 41.1043C44.9418 42.8315 48.2802 42.3778 50.0477 40.0867L53.5861 35.5006C53.8797 35.1202 54.2746 34.8261 54.7277 34.6501ZM72.251 18.1828C77.3898 18.1828 81.5556 14.1125 81.5556 9.0914C81.5556 4.07035 77.3898 0 72.251 0C67.1123 0 62.9465 4.07035 62.9465 9.0914C62.9465 14.1125 67.1123 18.1828 72.251 18.1828Z" fill="#CAFFC3"/>
<path d="M30.9023 64.0072L34.4346 55.9542L43.0164 64.3393L40.2034 69.972C39.9354 70.5087 39.5747 70.9962 39.137 71.4131L28.5179 81.5312C26.4403 83.5107 23.108 83.4831 21.0475 81.4865C18.9495 79.4535 18.936 76.1247 21.0354 74.0928L29.7571 65.6518C30.2437 65.1808 30.6325 64.6223 30.9023 64.0072ZM35.0688 34.6501L39.47 32.9422L36.4618 46.3564C36.2832 47.153 36.4979 47.9855 37.0415 48.6042L37.088 48.6572L45.946 58.4447L45.9182 58.5287L45.9554 58.454L51.4079 65.6368C51.816 66.1742 52.1139 66.7838 52.2852 67.4317L55.357 79.045C56.0964 81.8403 59.0465 83.5052 61.9008 82.7579C64.7036 82.0241 66.4062 79.2249 65.702 76.4743L62.1592 62.6339C61.9746 61.9124 61.6336 61.2382 61.1593 60.6567L52.1239 49.5782L54.925 38.9042L56.5385 43.0843C56.8913 43.9982 57.5004 44.7964 58.2963 45.3874L63.9308 49.5715C66.2613 51.3021 69.5867 50.8646 71.3682 48.5953C73.1598 46.3132 72.7147 43.041 70.3729 41.2983L66.2013 38.1938C65.4498 37.6345 64.8643 36.8897 64.5052 36.0359L60.9029 27.4724C60.4367 26.3642 59.5893 25.5184 58.5679 25.0233L58.5736 25.0014C58.5736 25.0014 54.3041 22.1707 51.1798 21.3486C47.931 20.4938 42.766 21.0334 42.1793 21.0989C41.5247 21.0966 40.8589 21.2132 40.213 21.4622L28.1062 26.1316C27.8204 26.2418 27.5716 26.4272 27.3872 26.6672L21.8819 33.8341C20.1219 36.1255 20.5967 39.3797 22.9381 41.1043C25.2829 42.8315 28.6212 42.3778 30.3888 40.0867L33.9272 35.5006C34.2207 35.1202 34.6157 34.8261 35.0688 34.6501ZM52.5921 18.1828C57.7309 18.1828 61.8966 14.1125 61.8966 9.0914C61.8966 4.07035 57.7309 0 52.5921 0C47.4533 0 43.2875 4.07035 43.2875 9.0914C43.2875 14.1125 47.4533 18.1828 52.5921 18.1828Z" fill="#81FA71"/>
<path d="M11.4349 64.0072L14.9672 55.9542L23.549 64.3393L20.736 69.972C20.468 70.5087 20.1073 70.9962 19.6696 71.4131L9.05048 81.5312C6.9729 83.5107 3.64055 83.4831 1.58009 81.4865C-0.517925 79.4535 -0.531383 76.1247 1.56796 74.0928L10.2896 65.6518C10.7763 65.1808 11.1651 64.6223 11.4349 64.0072ZM15.6014 34.6501L20.0026 32.9422L16.9944 46.3564C16.8158 47.153 17.0305 47.9855 17.5741 48.6042L17.6206 48.6572L26.4786 58.4447L26.4508 58.5287L26.488 58.454L31.9405 65.6368C32.3486 66.1742 32.6465 66.7838 32.8178 67.4317L35.8896 79.045C36.629 81.8403 39.579 83.5052 42.4334 82.7579C45.2362 82.0241 46.9388 79.2249 46.2346 76.4743L42.6918 62.6339C42.5072 61.9124 42.1662 61.2382 41.6918 60.6567L32.6565 49.5782L35.4576 38.9042L37.0711 43.0843C37.4239 43.9982 38.033 44.7964 38.8289 45.3874L44.4634 49.5715C46.7939 51.3021 50.1193 50.8646 51.9008 48.5953C53.6924 46.3132 53.2473 43.041 50.9055 41.2983L46.7339 38.1938C45.9824 37.6345 45.3969 36.8897 45.0378 36.0359L41.4355 27.4724C40.9692 26.3642 40.1219 25.5184 39.1005 25.0233L39.1062 25.0014C39.1062 25.0014 34.8367 22.1707 31.7124 21.3486C28.4636 20.4938 23.2986 21.0334 22.7119 21.0989C22.0572 21.0966 21.3915 21.2132 20.7456 21.4622L8.63875 26.1316C8.35297 26.2418 8.10424 26.4272 7.91981 26.6672L2.4145 33.8341C0.654448 36.1255 1.12931 39.3797 3.47074 41.1043C5.81549 42.8315 9.15383 42.3778 10.9214 40.0867L14.4597 35.5006C14.7533 35.1202 15.1483 34.8261 15.6014 34.6501ZM33.1247 18.1828C38.2635 18.1828 42.4292 14.1125 42.4292 9.0914C42.4292 4.07035 38.2635 0 33.1247 0C27.9859 0 23.8201 4.07035 23.8201 9.0914C23.8201 14.1125 27.9859 18.1828 33.1247 18.1828Z" fill="#2DCD18"/>
</svg>
