<svg width="47" height="47" viewBox="0 0 47 47" fill="none" xmlns="http://www.w3.org/2000/svg">
<path d="M40.3929 29.1C40.5182 29.1 40.6424 29.1054 40.7653 29.1159L40.3929 29.1C40.5634 29.1 40.7318 29.11 40.8975 29.1294C40.9786 29.1388 41.0596 29.1507 41.1399 29.1647C41.1791 29.1716 41.2172 29.1788 41.2551 29.1865C41.346 29.205 41.4371 29.2267 41.5273 29.2512C41.5483 29.2569 41.5681 29.2625 41.5879 29.2682C43.5527 29.8333 45 31.76 45 34.05C45 36.7838 42.9373 39 40.3929 39C37.8484 39 35.7857 36.7838 35.7857 34.05C35.7857 32.1318 36.8013 30.4684 38.2862 29.6466L38.3566 29.6085C38.4303 29.5694 38.5051 29.5324 38.5809 29.4975L38.2862 29.6466C38.4124 29.5768 38.5419 29.5131 38.6745 29.4558C38.7494 29.4234 38.8248 29.3933 38.9011 29.3653C38.937 29.3521 38.9735 29.3392 39.0103 29.3268C39.0747 29.305 39.1391 29.2849 39.2042 29.2663C39.2543 29.252 39.3046 29.2386 39.3552 29.2261C39.4294 29.2077 39.5055 29.191 39.5823 29.1764C39.6146 29.1702 39.6469 29.1644 39.6794 29.159C39.7698 29.1439 39.8605 29.1317 39.9519 29.1224C39.9786 29.1197 40.0052 29.1172 40.032 29.115C40.1507 29.1051 40.2712 29.1 40.3929 29.1ZM6.60714 29.1C6.73975 29.1 6.87105 29.106 7.00082 29.1178L6.60714 29.1C6.77514 29.1 6.94103 29.1097 7.10436 29.1285C7.18962 29.1383 7.27481 29.1507 7.35923 29.1656C7.40988 29.1746 7.45931 29.1842 7.50846 29.1947C7.58856 29.2117 7.66808 29.2311 7.7468 29.2526C7.7884 29.264 7.82899 29.2757 7.86935 29.2881C7.98773 29.3242 8.10559 29.3658 8.22125 29.4123C8.23163 29.4165 8.24249 29.4209 8.25333 29.4253C8.35598 29.4676 8.4564 29.5134 8.55492 29.5628C8.56989 29.5703 8.58466 29.5779 8.59938 29.5855C10.1468 30.3845 11.2143 32.0833 11.2143 34.05C11.2143 36.7838 9.1516 39 6.60714 39C4.06269 39 2 36.7838 2 34.05C2 31.5895 3.67089 29.5483 5.86006 29.1647C5.89057 29.1594 5.92168 29.1543 5.95289 29.1495C5.96667 29.1474 5.98018 29.1454 5.99372 29.1435C6.1942 29.1148 6.39906 29.1 6.60714 29.1ZM30.9386 20.85C31.6542 20.85 32.2344 21.4595 32.2344 22.2113C32.2344 22.4207 32.1893 22.6192 32.1089 22.7965L32.1118 22.8029L25.3571 34.1555C25.2342 34.4242 25.0706 34.6683 24.8746 34.8792C24.404 35.3856 23.747 35.7 23.0201 35.7C21.5888 35.7 20.4286 34.4811 20.4286 32.9775C20.4286 32.2999 20.6642 31.6802 21.054 31.2037L21.1574 31.0888L21.1474 31.0796L30.0977 21.1667C30.3295 20.9703 30.6207 20.85 30.9386 20.85ZM30.1832 10.95C36.4288 13.6212 40.9591 19.928 41.5271 27.4387C41.1586 27.3655 40.7798 27.3278 40.3929 27.3278C39.6352 27.3278 38.9091 27.4725 38.237 27.7375C37.7885 21.7292 34.2369 16.6605 29.3053 14.3807C29.7834 13.5227 30.0869 12.5371 30.1638 11.4827L30.1832 10.95ZM17.681 10.5484C17.6737 10.6812 17.67 10.8152 17.67 10.95C17.67 12.0664 17.9233 13.1193 18.3715 14.0459C13.0454 16.1228 9.1395 21.3875 8.64981 27.6952C8.01091 27.457 7.32307 27.3278 6.60714 27.3278C6.17943 27.3278 5.76174 27.3739 5.35815 27.4617C5.91667 19.9471 10.4445 13.6325 16.6887 10.94L17.2197 10.7214L17.681 10.5484ZM23.9266 6C26.2694 6 28.2038 7.87884 28.4957 10.3106C28.4936 10.3096 28.4949 10.3104 28.4957 10.3106L28.5187 10.5478C28.5287 10.6804 28.5337 10.8146 28.5337 10.95C28.5337 11.0847 28.5287 11.2181 28.5189 11.35L28.5337 10.95C28.5337 11.1304 28.5248 11.3085 28.5072 11.4839C28.4986 11.5707 28.4879 11.6564 28.4752 11.7414C28.4676 11.7918 28.4594 11.8418 28.4505 11.8915C28.4366 11.9692 28.4209 12.0464 28.4036 12.123C28.3923 12.1728 28.3805 12.2217 28.368 12.2703C28.2684 12.6582 28.1258 13.027 27.9463 13.3705C27.9332 13.3956 27.9199 13.4205 27.9064 13.4453C27.8578 13.5345 27.8068 13.6218 27.7534 13.7072C27.7418 13.7259 27.7304 13.7438 27.7189 13.7616C26.8876 15.0535 25.4991 15.9 23.9266 15.9C22.0224 15.9 20.388 14.6588 19.686 12.8883C19.6679 12.8409 19.6498 12.7933 19.6324 12.7454C19.6116 12.6895 19.5924 12.6336 19.5742 12.5772C19.5553 12.518 19.537 12.4579 19.5197 12.3973C19.4657 12.208 19.422 12.0132 19.3894 11.8143C19.3837 11.7789 19.3781 11.7428 19.3729 11.7065C19.3377 11.4595 19.3194 11.207 19.3194 10.95C19.3194 10.6613 19.3424 10.3784 19.3866 10.1033C19.3905 10.0789 19.3945 10.0548 19.3988 10.0307C19.7998 7.73614 21.6745 6 23.9266 6Z" fill="#0139B0"/>
</svg>
