<svg width="47" height="47" viewBox="0 0 47 47" fill="none" xmlns="http://www.w3.org/2000/svg">
<path d="M17.9486 16.6548L19.0906 20.767C20.1672 24.6437 20.7055 26.5822 22.2881 27.464C23.8706 28.3456 25.8796 27.8262 29.8974 26.7874L34.159 25.6856C38.1769 24.6468 40.1858 24.1274 41.0997 22.6001C42.0133 21.0731 41.475 19.1347 40.3984 15.2578L39.2566 11.1457C38.18 7.26884 37.6418 5.33039 36.0591 4.44872C34.4764 3.56704 32.4674 4.08646 28.4496 5.12526L24.188 6.22709C20.1701 7.26589 18.1612 7.78529 17.2475 9.31242C16.3337 10.8395 16.872 12.778 17.9486 16.6548Z" fill="#0139B0"/>
<path d="M2.06008 9.11532C2.30211 8.24246 3.2055 7.73118 4.07783 7.97336L7.8014 9.00707C9.80534 9.5634 11.3912 11.1092 11.9445 13.1129L16.6457 30.1402L16.9917 31.3355C18.3754 31.8523 19.564 32.8207 20.3182 34.1068L20.9957 33.8975L40.3821 28.8565C41.2583 28.6286 42.1532 29.1545 42.381 30.0313C42.6087 30.908 42.0829 31.8033 41.2067 32.0312L21.8921 37.0539L21.1737 37.2758C21.159 40.0552 19.2425 42.5937 16.3426 43.3478C12.8665 44.2516 9.29348 42.2497 8.36205 38.8762C7.43064 35.5027 9.4935 32.0351 12.9696 31.1313C13.1419 31.0864 13.3144 31.0488 13.4868 31.018L8.78445 13.9864C8.54782 13.1293 7.8551 12.4263 6.92494 12.168L3.20137 11.1343C2.32902 10.8921 1.81805 9.9882 2.06008 9.11532Z" fill="#0139B0"/>
</svg>
