<svg width="41" height="40" viewBox="0 0 41 40" fill="none" xmlns="http://www.w3.org/2000/svg">
<path d="M15.9486 12.6548L17.0906 16.767C18.1672 20.6437 18.7055 22.5822 20.2881 23.464C21.8706 24.3456 23.8796 23.8262 27.8974 22.7874L32.159 21.6856C36.1769 20.6468 38.1858 20.1274 39.0997 18.6001C40.0133 17.0731 39.475 15.1347 38.3984 11.2578L37.2566 7.14573C36.18 3.26884 35.6418 1.33039 34.0591 0.448716C32.4764 -0.432962 30.4674 0.0864604 26.4496 1.12526L22.188 2.22709C18.1701 3.26589 16.1612 3.78529 15.2475 5.31242C14.3337 6.83952 14.872 8.77798 15.9486 12.6548Z" fill="#0139B0"/>
<path d="M0.0600827 5.11532C0.302114 4.24246 1.2055 3.73118 2.07783 3.97336L5.8014 5.00707C7.80534 5.5634 9.39122 7.10917 9.94445 9.11288L14.6457 26.1402L14.9917 27.3355C16.3754 27.8523 17.564 28.8207 18.3182 30.1068L18.9957 29.8975L38.3821 24.8565C39.2583 24.6286 40.1532 25.1545 40.381 26.0313C40.6087 26.908 40.0829 27.8033 39.2067 28.0312L19.8921 33.0539L19.1737 33.2758C19.159 36.0552 17.2425 38.5937 14.3426 39.3478C10.8665 40.2516 7.29348 38.2497 6.36205 34.8762C5.43064 31.5027 7.4935 28.0351 10.9696 27.1313C11.1419 27.0864 11.3144 27.0488 11.4868 27.018L6.78445 9.98642C6.54782 9.12935 5.8551 8.42625 4.92494 8.16802L1.20137 7.13432C0.329018 6.89214 -0.181948 5.9882 0.0600827 5.11532Z" fill="#0139B0"/>
</svg>
