<svg width="47" height="47" viewBox="0 0 47 47" fill="none" xmlns="http://www.w3.org/2000/svg">
<path fill-rule="evenodd" clip-rule="evenodd" d="M12 40V20.7C12 19.88 12.6716 19.2154 13.5 19.2154H34.5C35.3284 19.2154 36 19.88 36 20.7V40H12ZM33 22.1846H15V40H33V22.1846ZM7.5 40C6.67157 40 6 39.3353 6 38.5154V15.7175C6 14.5531 6.68761 13.4962 7.75858 13.0144L22.7586 6.26615C23.5473 5.91128 24.4527 5.91128 25.2414 6.26615L40.2414 13.0144C41.3124 13.4962 42 14.5531 42 15.7175V38.5154C42 39.3353 41.3284 40 40.5 40H7.5ZM15 25.1538H33V28.1231H15V25.1538ZM15 37.0308H33V40H15V37.0308ZM15 31.0923H33V34.0615H15V31.0923Z" fill="#0139B0"/>
</svg>
